<svg version="1.1" id="Layer_1" xmlns="http://www.w3.org/2000/svg" x="0px" y="0px"
     viewBox="0 0 24 24" style="enable-background:new 0 0 24 24;" xml:space="preserve">
<path fill="#AAAAAA" d="M21.7,21.8h-1.5v-1.6v0c0-0.8,0.1-1.6,0.4-2.4c0.5-1.5,0.5-3.1,0.4-4.8c-0.1-1.9-0.7-3.8-1.6-5.3
	c-0.6-1-1.4-1.8-2.2-2.4l0.9-1.8c0.1-0.3,0-0.7-0.3-0.9l-0.3-0.2l0.2-0.3c0.1-0.2,0.1-0.4-0.1-0.5l-1.3-0.8
	c-0.2-0.1-0.4-0.1-0.5,0.1l-0.2,0.3L15.3,1c-0.3-0.2-0.7-0.1-0.9,0.2L9.7,7.7C9.5,7.9,9.6,8.3,9.8,8.5l4,2.4
	c0.3,0.2,0.7,0.1,0.8-0.3l2.1-4.1c1.6,1.3,2.8,3.8,3,6.5c0.1,2.5-1.3,4.7-2.9,6.4h-4v-3.3h3.3v-1H8v1h3.3v3.3H4.6
	c-0.4,0-0.8,0.4-0.8,0.8v1.6H2.3c-0.3,0-0.6,0.3-0.6,0.6v1.1h20.6v-1.1C22.3,22,22.1,21.8,21.7,21.8z"/>
</svg>
